<svg xmlns="http://www.w3.org/2000/svg" width="32" height="32" viewBox="0 0 32 32">
  <rect width="32" height="32" rx="5" fill="#0A0A0F"/>
  <g transform="translate(5.04, 25.08) scale(0.3678)">
    <path d="M22.60 1.40L22.60 1.40Q17.40 1.40 13.20-0.45Q9-2.30 6.55-5.80Q4.10-9.30 4.10-14.40L4.10-14.40Q4.10-19.40 6.55-22.80Q9-26.20 13.30-27.95Q17.60-29.70 23.10-29.70L23.10-29.70L37.40-29.70L37.40-32.70Q37.40-36.60 35-39.05Q32.60-41.50 27.50-41.50L27.50-41.50Q22.50-41.50 19.95-39.15Q17.40-36.80 16.60-33.10L16.60-33.10L6-36.60Q7.20-40.50 9.85-43.70Q12.50-46.90 16.90-48.85Q21.30-50.80 27.70-50.80L27.70-50.80Q37.40-50.80 42.95-45.95Q48.50-41.10 48.50-31.90L48.50-31.90L48.50-12.50Q48.50-9.50 51.30-9.50L51.30-9.50L55.50-9.50L55.50 0L47.40 0Q43.80 0 41.50-1.80Q39.20-3.60 39.20-6.70L39.20-6.70L39.20-6.90L37.50-6.90Q36.90-5.50 35.40-3.50Q33.90-1.50 30.85-0.05Q27.80 1.40 22.60 1.40ZM24.50-8L24.50-8Q30.20-8 33.80-11.25Q37.40-14.50 37.40-20L37.40-20L37.40-21L23.80-21Q20.10-21 17.80-19.40Q15.50-17.80 15.50-14.70L15.50-14.70Q15.50-11.70 17.90-9.85Q20.30-8 24.50-8Z" fill="#FFFFFF"/>
  </g>
</svg>